# xmcd
#
# Track frame offsets: 
#        150
#        19816
#        39527
#        57887
#        70136
#        85615
#        98882
#        126642
#        140980
#        156913
#        173557
#        194925
#        214116
#        230577
#        248729
#        270386
#        296231
#
# Disc length: 4190 seconds
#
# Revision: 2
# Processed by: cddbd v1.5.2PL0 Copyright (c) Steve Scherf et al.
# Submitted via: ExactAudioCopy v0.99pb3
#
DISCID=06105c11
DTITLE=Various Artist - The Best Festival Rock Hits
DYEAR=2009
DGENRE=Rock
TTITLE0=Robbie Williams - Let Me Entertain You
TTITLE1=Coldplay - God Put A Smile Upon Your Face [Live]
TTITLE2=Lady Linn and Her Magnificent 7 - I Don't Wanna Dance
TTITLE3=Röyksopp - Happy Up Here
TTITLE4=Lily Allen - The Fear
TTITLE5=I Kissed A Girl Rock Remix] - Kate Perry
TTITLE6=Daft Punk - One More Time and Aerodynamic [Live]
TTITLE7=Moby - James Bond Theme [Moby's Re-Version]
TTITLE8=N.e.r.d. - She Wants To Move [Explicit]
TTITLE9=Placebo - Where Is My Mind [Live]
TTITLE10=Radiohead - Fake Plastic Trees [Acoustic Version]
TTITLE11=Nick Cave and The Bad Seeds - The Ship Song [Live]
TTITLE12=Novastar - Because
TTITLE13=Tom Helsen - Sun In Your Eyes [Live]
TTITLE14=Simple Minds - Waterfront
TTITLE15=Depeche Mode - Everything Counts [Live]
TTITLE16=Pet Shop Boys - Always On My Mind [Live]
EXTD=
EXTT0=
EXTT1=
EXTT2=
EXTT3=
EXTT4=
EXTT5=
EXTT6=
EXTT7=
EXTT8=
EXTT9=
EXTT10=
EXTT11=
EXTT12=
EXTT13=
EXTT14=
EXTT15=
EXTT16=
PLAYORDER=
